# xmcd
#
# Track frame offsets:
#   183
#   12885
#   26170
#   37023
#   51903
#   63545
#   79360
#   98043
#   112315
#   123245
#   136600
#   143598
#   155628
#   168143
#   183845
#   196803
#   210943
#   226150
#   237078
#
# Disc length: 3324 seconds
#
# Revision: 4
# Processed by: cddbd v1.5PL3 Copyright (c) Steve Scherf et al.
# Submitted via: Media_Universe 3.0
#
DISCID=f70cfa13
DTITLE=Pierre Perret - Pierre Perret Pierrot les femmes
DYEAR=1900
DGENRE=Soundtrack
TTITLE0=Pierre Perret Cuisse de mouche
TTITLE1=Pierre Perret Gourrance
TTITLE2=Pierre PerretEstelle
TTITLE3=Pierre Perret Electra
TTITLE4=Pierre PerretMa Femme
TTITLE5=Pierre PerretLaetitia
TTITLE6=Pierre PerretJeanine
TTITLE7=Pierre PerretElle attend son petit
TTITLE8=Pierre PerretL'idole des femmes
TTITLE9=Pierre PerretSuzanne
TTITLE10=Pierre PerretLouise
TTITLE11=Pierre PerretMon épouse elle est jalouse
TTITLE12=Pierre PerretPépita
TTITLE13=Pierre PerretFemme
TTITLE14=Pierre PerretIrène
TTITLE15=Pierre PerretC'était elle que j'attendais
TTITLE16=Pierre Perret Pour les beaux yeux de Sylvie
TTITLE17=Pierre Perret Rébecca
TTITLE18=Pierre Perret Djamilla la fille du pacha
EXTD=
EXTT0=King Curtis
EXTT1=Aretha Franklin
EXTT2=Rufus Thomas
EXTT3=Eddie Floyd
EXTT4=Sam and Dave
EXTT5=R.B. Greaves
EXTT6=Otis Reading
EXTT7=Brook Benton
EXTT8=Aretha Franklin
EXTT9=Wilson Pickett
EXTT10=The Coasters
EXTT11=Ray Charles
EXTT12=Otis Reading and Carla Thomas
EXTT13=The drifters
EXTT14=Aretha Franklin
EXTT15=Sam and Dave
EXTT16=Otis Reading
EXTT17=Percy Sledge
EXTT18=The Spinners
PLAYORDER=
